<svg xmlns="http://www.w3.org/2000/svg" viewBox="0 0 220 100"><defs><style>.cls-1{fill:#f5a61f;}.cls-2{fill:#e5212e;}.cls-3{fill:#233a71;}.cls-4{fill:#fff;}.cls-5{fill:none;}</style></defs><title>mastercard</title><g id="Capa_2" data-name="Capa 2"><g id="Capa_3" data-name="Capa 3"><path class="cls-1" d="M98.76,0A42.13,42.13,0,0,0,66.2,15.44h8.42a42.82,42.82,0,0,1,3,4.26H63.14a42.5,42.5,0,0,0-2.57,4.75H80.25a41.48,41.48,0,0,1,1.69,4.26H58.88a44.05,44.05,0,0,0-1.22,4.44h25.5A42.19,42.19,0,0,1,82,55.38H58.87a42.28,42.28,0,0,0,1.78,4.46H80.17a43.72,43.72,0,0,1-2.3,4.27H63a40.06,40.06,0,0,0,3.18,4.46h8.56a41.83,41.83,0,0,1-4.28,4.55,41.4,41.4,0,0,0,4.14,3.31A42.05,42.05,0,1,0,98.76,0Z"/><path class="cls-2" d="M84.11,42.06a42.15,42.15,0,0,0-1-8.91H57.66a44.05,44.05,0,0,1,1.22-4.44H81.94a41.48,41.48,0,0,0-1.69-4.26H60.57a42.5,42.5,0,0,1,2.57-4.75H77.67a42.82,42.82,0,0,0-3-4.26H66.2A42.09,42.09,0,0,1,70.41,11a42.06,42.06,0,1,0-4.14,65.43,42.57,42.57,0,0,0,4.14-3.31,41.83,41.83,0,0,0,4.28-4.55H66.13A40.06,40.06,0,0,1,63,64.11H77.87a43.72,43.72,0,0,0,2.3-4.27H60.65a42.28,42.28,0,0,1-1.78-4.46H82A42.25,42.25,0,0,0,84.11,42.06Z"/><path class="cls-3" d="M13.22,32.59l.28,13,4.35-12.83,7.06-.22L21.3,54H16.89L19,38.49,13.5,54m0,0H10.43L9.88,38.49,7.14,54H3.21l3.6-21.42h6.41"/><path class="cls-3" d="M23.23,49.42c-.14-4.14,2.56-6.63,9.9-6.5.16-1.56-.25-2.46-1.94-2.46-1.31,0-4-.2-5.71.78l.87-4c3.16-1.14,3.59-.91,6-.91,4,0,5.34,2.31,4.93,7.68L35.67,54.23H32.15l0-1.77-.64.62a5.67,5.67,0,0,1-4.63,1.33C24.76,54.22,23.34,52.41,23.23,49.42Zm9.35-3.22c-3.41-.15-4.56.88-4.85,2.58a1.45,1.45,0,0,0,1.34,1.8C32.79,50.47,32.58,46.2,32.58,46.2Z"/><path class="cls-3" d="M36.17,52.17l2.38-3.29A4.68,4.68,0,0,0,42,50.75a1.77,1.77,0,0,0,2-1.53c.17-1.17-1.16-1.71-2.51-2.43-1.62-.84-3.43-2.29-3-5.24A6.22,6.22,0,0,1,44.73,36a6.1,6.1,0,0,1,4.68,2.26L47.05,41.4a4,4,0,0,0-2.77-1.52,1.63,1.63,0,0,0-1.83,1.42c-.17,1.14,1.1,1.57,2.47,2.24,1.68.84,3.52,2.11,3,5.37a6.49,6.49,0,0,1-6.7,5.75A7,7,0,0,1,36.17,52.17Z"/><path class="cls-3" d="M52.1,34h4.2l-.52,2.67,2.52-.14-.43,4.17-2.67.12L54,48.34c-.17,1.29.14,1.94,1.54,1.75a5.19,5.19,0,0,0,1.27-.2l-.46,4.19a8.29,8.29,0,0,1-3,.58c-3.2,0-4.1-2.49-3.54-6.2L52.1,34"/><path class="cls-3" d="M57.66,45.13c.94-5.5,5.11-8.89,8.85-8.89,4.42,0,6,3.51,5.23,8.14a14,14,0,0,1-.57,2.22l-8.92.09c0,2.46.83,3.25,3.12,3.69a10.94,10.94,0,0,0,5.34-.94L70,53.36a9.58,9.58,0,0,1-5.68,1C60.17,54,56.71,50.74,57.66,45.13Zm9.86-1.83a2.48,2.48,0,0,0-2.45-3c-1.21,0-1.91,1.1-2.47,3.12Z"/><path class="cls-3" d="M78.34,39.15c1.65-2.56,3.88-2.78,4.21-2.55l-1.62,5C77.6,40.14,76.32,54,76.32,54H71.79l2.54-17.34h4.31l-.3,2.48"/><path class="cls-3" d="M95.19,49.29c-.15-4.13,2.55-6.63,9.9-6.49.16-1.56-.26-2.46-2-2.46-1.31,0-4-.21-5.71.78l.87-4a12.28,12.28,0,0,1,6-.91c4,0,5.34,2.31,4.93,7.68l-1.65,10.19H104.1l0-1.77-.64.62a5.67,5.67,0,0,1-4.63,1.33C96.71,54.1,95.3,52.29,95.19,49.29Zm9.35-3.21c-3.42-.15-4.56.88-4.86,2.57a1.44,1.44,0,0,0,1.34,1.8C104.75,50.35,104.54,46.08,104.54,46.08Z"/><path class="cls-3" d="M115.9,39c1.65-2.57,3.88-2.78,4.22-2.56l-1.63,5c-3.32-1.45-4.61,12.42-4.61,12.42h-4.53l2.54-17.33h4.31L115.9,39"/><path class="cls-3" d="M131,32.53l-1,6.28c-1.88-2.18-3.09-2.16-4.81-2.16-3.28,0-6.06,3.5-7,8.48s1.62,8.2,3.48,8.85c2.77,1,4.65-.39,6-1.47h.12l.05,1.51H132l3.67-21.49ZM128.67,46c-.47,2.56-2.14,4.39-3.74,4.1s-2.51-2.61-2-5.16,2.15-4.4,3.74-4.11S129.14,43.41,128.67,46Z"/><path class="cls-3" d="M86.66,42.67c.62-3.65,3.17-7.52,9.74-4.88l.69-4.73L97,33C87.36,30.17,83,36,81.91,42.11s1.36,14.2,11.85,11.68l.08,0L94.48,49C86.53,51.92,86,46.31,86.66,42.67Z"/><path class="cls-4" d="M14.42,31.73l.27,13,4.36-12.83,7.05-.21L22.5,53.14H18.08l2.11-15.52-5.5,15.52m0,0H11.62l-.55-15.52L8.33,53.14H4.4L8,31.73h6.41"/><path class="cls-4" d="M24.43,48.55c-.15-4.13,2.56-6.63,9.9-6.49.16-1.56-.25-2.47-1.95-2.47-1.31,0-4-.2-5.7.78l.87-4a12.14,12.14,0,0,1,6-.92c4,0,5.34,2.31,4.94,7.68L36.87,53.36H33.34l0-1.76-.64.61a5.64,5.64,0,0,1-4.63,1.33C26,53.36,24.54,51.54,24.43,48.55Zm9.35-3.22c-3.41-.15-4.56.88-4.86,2.58a1.45,1.45,0,0,0,1.35,1.8C34,49.6,33.78,45.33,33.78,45.33Z"/><path class="cls-4" d="M37.36,51.3,39.75,48a4.66,4.66,0,0,0,3.39,1.88,1.78,1.78,0,0,0,2-1.54c.17-1.17-1.16-1.71-2.52-2.42-1.62-.85-3.42-2.3-3-5.25a6.24,6.24,0,0,1,6.27-5.58,6.1,6.1,0,0,1,4.68,2.26l-2.36,3.17A4,4,0,0,0,45.48,39a1.64,1.64,0,0,0-1.84,1.42c-.16,1.14,1.1,1.58,2.48,2.25,1.68.83,3.52,2.1,3,5.36a6.48,6.48,0,0,1-6.69,5.76A7,7,0,0,1,37.36,51.3Z"/><path class="cls-4" d="M53.3,33.15h4.19L57,35.82l2.51-.14-.43,4.18L56.39,40l-1.22,7.5c-.17,1.29.14,1.94,1.54,1.75A5,5,0,0,0,58,49l-.45,4.2a8.51,8.51,0,0,1-3,.58c-3.21,0-4.1-2.5-3.54-6.21L53.3,33.15"/><path class="cls-4" d="M58.86,44.26c.94-5.49,5.11-8.89,8.84-8.89,4.43,0,6,3.51,5.23,8.14a13,13,0,0,1-.57,2.22l-8.91.09c0,2.46.82,3.26,3.12,3.69a10.91,10.91,0,0,0,5.33-.94l-.75,3.92a9.52,9.52,0,0,1-5.68,1C61.36,53.14,57.9,49.87,58.86,44.26Zm9.86-1.83a2.48,2.48,0,0,0-2.45-3c-1.21,0-1.91,1.09-2.48,3.11Z"/><path class="cls-4" d="M79.53,38.28c1.65-2.56,3.89-2.78,4.22-2.55l-1.63,5c-3.32-1.44-4.6,12.43-4.6,12.43H73L75.52,35.8h4.31l-.3,2.48"/><path class="cls-4" d="M96.38,48.43c-.14-4.13,2.56-6.63,9.9-6.5.16-1.56-.25-2.46-1.94-2.46-1.31,0-4-.2-5.71.78l.87-4c3.16-1.14,3.59-.91,6-.91,4,0,5.34,2.31,4.93,7.68l-1.66,10.19H105.3l0-1.77-.64.62a5.67,5.67,0,0,1-4.63,1.33C97.91,53.24,96.49,51.42,96.38,48.43Zm9.35-3.22c-3.41-.15-4.56.88-4.85,2.58a1.45,1.45,0,0,0,1.34,1.8C105.94,49.48,105.73,45.21,105.73,45.21Z"/><path class="cls-4" d="M117.1,38.14c1.65-2.57,3.88-2.78,4.21-2.55l-1.62,5C116.36,39.13,115.08,53,115.08,53h-4.53l2.54-17.34h4.3l-.29,2.48"/><path class="cls-4" d="M132.19,31.66l-1,6.28a5.09,5.09,0,0,0-4.81-2.15c-3.29,0-6.07,3.49-7,8.47s1.63,8.21,3.49,8.85c2.76,1,4.64-.39,5.95-1.47h.12l0,1.51h4.2l3.66-21.49ZM129.87,45.1c-.47,2.56-2.15,4.4-3.74,4.1s-2.51-2.6-2-5.16,2.14-4.4,3.74-4.1S130.34,42.54,129.87,45.1Z"/><path class="cls-5" d="M97.59,36.93c-6.56-2.65-9.12,1.22-9.74,4.88s-.12,9.24,7.83,6.3"/><path class="cls-4" d="M87.85,41.81c.62-3.66,3.18-7.53,9.74-4.88l.7-4.73-.08,0c-9.65-2.87-14.06,2.95-15.1,9.07S84.47,55.45,95,52.93l.09,0,.64-4.79C87.73,51.05,87.23,45.44,87.85,41.81Z"/></g></g></svg>