<svg xmlns="http://www.w3.org/2000/svg" viewBox="0 0 220 100"><defs><style>.cls-1{fill:#0658a0;}.cls-2{fill:#f7a520;}</style></defs><title>visa</title><g id="Capa_2" data-name="Capa 2"><g id="Capa_3" data-name="Capa 3"><polygon class="cls-1" points="88.45 65.33 71.99 65.33 82.47 1.31 99.02 1.45 88.45 65.33"/><path class="cls-1" d="M146.29,16.74l2.38-14.45S119-7.23,107.86,12.53C98,29.92,122,39.86,122,39.86s12.49,6.47,3.43,11.06A14.59,14.59,0,0,1,118,52.38c-4.6-.29-13-1.23-16.54-4.22L99,62.6s30.36,11.65,44.6-8.41c0,0,12-17.95-14.24-28.76,0,0-11.57-5.58-3.54-10.39a11.79,11.79,0,0,1,5.49-1.64A29.3,29.3,0,0,1,146.29,16.74Z"/><path class="cls-1" d="M190.94,1.26H176.08a7,7,0,0,0-6.48,4.33L144.84,65.22h17.49l3.46-9.54h21.13l1.68,9.54h15.59ZM170.56,42.41l8.88-23.29,4.49,23.29Z"/><path class="cls-1" d="M58.16,1.31,42.07,44.18l-1.64-8.1c-2.56-5.43-9.56-17.94-23-26.45l14.6,55.7H49.84l25.9-64Z"/><path class="cls-2" d="M34.69,7.81a7.72,7.72,0,0,0-7.94-6.53L0,1.31V2.42A54,54,0,0,1,17.47,9.63c13.4,8.51,20.4,21,23,26.45Z"/></g></g></svg>